<?xml version="1.0" encoding="UTF-8"?>
<svg version="1.1" xmlns="http://www.w3.org/2000/svg" width="128" height="128">
<path d="M0 0 C0.89162842 0.37125 0.89162842 0.37125 1.80126953 0.75 C19.98742322 8.48459847 30.65878444 20.14562913 38.95703125 38.1015625 C43.77060527 51.47861091 44.66432909 69.81512587 39 83 C38.62875 83.89162842 38.62875 83.89162842 38.25 84.80126953 C30.51540153 102.98742322 18.85437087 113.65878444 0.8984375 121.95703125 C-12.47861091 126.77060527 -30.81512587 127.66432909 -44 122 C-44.59441895 121.7525 -45.18883789 121.505 -45.80126953 121.25 C-63.98742322 113.51540153 -74.65878444 101.85437087 -82.95703125 83.8984375 C-87.77060527 70.52138909 -88.66432909 52.18487413 -83 39 C-82.7525 38.40558105 -82.505 37.81116211 -82.25 37.19873047 C-74.51540153 19.01257678 -62.85437087 8.34121556 -44.8984375 0.04296875 C-31.52138909 -4.77060527 -13.18487413 -5.66432909 0 0 Z M-63 20 C-74.10844613 31.74321448 -79.68414732 45.61594265 -80.09375 61.67578125 C-79.51596945 74.66139911 -75.72877715 85.57810257 -68 96 C-67.42636719 96.78117187 -66.85273437 97.56234375 -66.26171875 98.3671875 C-56.22763459 110.7862467 -41.81191399 117.22111477 -26.1875 118.9375 C-10.03408268 119.65622825 4.30846892 114.66206476 16.6875 104.1875 C28.26610088 93.23476944 34.65987344 79.82050564 36 64 C36.36338375 49.75232882 32.46399612 37.41330611 24 26 C23.42636719 25.21882813 22.85273437 24.43765625 22.26171875 23.6328125 C12.22763459 11.2137533 -2.18808601 4.77888523 -17.8125 3.0625 C-35.06224013 2.2949921 -50.41609647 8.09630747 -63 20 Z " fill="#000000" transform="translate(86,3)"/>
<path d="M0 0 C3.3852682 3.22013317 3.34398832 4.79412673 3.5625 9.4375 C2.98534217 12.90222505 2.07585499 16.24611321 1.125 19.625 C0.64296794 21.38818888 0.16494462 23.15247977 -0.30859375 24.91796875 C-0.52443115 25.69035889 -0.74026855 26.46274902 -0.96264648 27.25854492 C-1.57945304 29.71719559 -1.57945304 29.71719559 -1.4375 33.4375 C1.715868 34.13824844 4.28974974 34.4375 7.5625 34.4375 C7.2325 36.0875 6.9025 37.7375 6.5625 39.4375 C-0.73225661 41.69887455 -6.1872633 43.33759468 -13.4375 40.4375 C-15.375 39.25 -15.375 39.25 -16.4375 37.4375 C-17.92889571 31.22200762 -16.74477571 26.74407156 -14.9375 20.8125 C-12.55367829 13.70437435 -12.55367829 13.70437435 -13.4375 6.4375 C-16.0775 6.4375 -18.7175 6.4375 -21.4375 6.4375 C-21.1075 4.7875 -20.7775 3.1375 -20.4375 1.4375 C-13.30208871 -1.33738217 -7.32442445 -3.32928384 0 0 Z " fill="#000000" transform="translate(70.4375,54.5625)"/>
<path d="M0 0 C2.5625 1.625 2.5625 1.625 4 4 C4.5625 6.9375 4.5625 6.9375 4 10 C2.00366611 12.86972996 0.52770117 14.65210765 -2.97265625 15.44921875 C-6.35687031 15.63266213 -8.62776779 15.23264513 -11.5 13.4375 C-13.58392818 10.05111671 -13.55802097 7.90614682 -13 4 C-10.02998831 -1.03610678 -5.29936086 -0.95291259 0 0 Z " fill="#000000" transform="translate(75,32)"/>
</svg>
