<?xml version="1.0" encoding="UTF-8"?>
<svg version="1.1" xmlns="http://www.w3.org/2000/svg" width="16" height="16">
<path d="M0 0 C2.5 1.5 2.5 1.5 4 4 C4.791013 8.02098277 4.62153384 10.96411027 2.5 14.5 C-1.03588973 16.62153384 -3.97901723 16.791013 -8 16 C-10.5 14.5 -10.5 14.5 -12 12 C-12.791013 7.97901723 -12.62153384 5.03588973 -10.5 1.5 C-6.96411027 -0.62153384 -4.02098277 -0.791013 0 0 Z M-7.25 1.5 C-9.82218159 3.70472708 -10.34390719 5.71953596 -11 9 C-10.66666667 11.33333333 -10.66666667 11.33333333 -9 13 C-5.98197308 14.44340418 -4.05709061 15.23490903 -0.75 14.5 C1.82218159 12.29527292 2.34390719 10.28046404 3 7 C2.66666667 4.66666667 2.66666667 4.66666667 1 3 C-2.01802692 1.55659582 -3.94290939 0.76509097 -7.25 1.5 Z " fill="#000000" transform="translate(12,0)"/>
<path d="M0 0 C0.99 0 1.98 0 3 0 C3 2.64 3 5.28 3 8 C1.68 8 0.36 8 -1 8 C-1.125 2.25 -1.125 2.25 0 0 Z " fill="#000000" transform="translate(7,4)"/>
</svg>
