<?xml version="1.0" encoding="UTF-8"?>
<svg version="1.1" xmlns="http://www.w3.org/2000/svg" width="64" height="64">
<path d="M0 0 C0.62132812 0.391875 1.24265625 0.78375 1.8828125 1.1875 C2.50414062 1.538125 3.12546875 1.88875 3.765625 2.25 C10.62521869 6.52611035 14.82446272 13.4804369 16.8828125 21.1875 C17.67485162 30.07491567 17.78212394 38.41951278 12.8828125 46.1875 C12.5321875 46.80882812 12.1815625 47.43015625 11.8203125 48.0703125 C7.54420215 54.92990619 0.5898756 59.12915022 -7.1171875 61.1875 C-16.00460317 61.97953912 -24.34920028 62.08681144 -32.1171875 57.1875 C-33.04917969 56.6615625 -33.04917969 56.6615625 -34 56.125 C-40.85959369 51.84888965 -45.05883772 44.8945631 -47.1171875 37.1875 C-47.90922662 28.30008433 -48.01649894 19.95548722 -43.1171875 12.1875 C-42.7665625 11.56617188 -42.4159375 10.94484375 -42.0546875 10.3046875 C-33.73233229 -3.04575731 -13.65305461 -7.47543675 0 0 Z M-35.1171875 8.1875 C-40.54022447 14.5386031 -43.949579 21.74612627 -44.1171875 30.1875 C-43.47183924 38.13245413 -40.00510571 45.86771068 -33.8984375 51.08203125 C-26.49173178 56.15562467 -18.79950102 59.20922975 -9.7421875 57.625 C-1.11770779 55.36088788 5.07525531 51.01901042 9.7265625 43.43359375 C13.431319 36.23685392 14.7943093 29.42726414 12.7265625 21.55078125 C9.64987628 12.93321104 5.01535162 7.3739897 -3.1171875 3.1875 C-14.66921595 -1.85209459 -25.37245379 0.3784774 -35.1171875 8.1875 Z " fill="#000000" transform="translate(47.1171875,2.8125)"/>
<path d="M0 0 C1.22627501 2.45255002 0.96028596 3.61661961 0.625 6.3125 C0.52574219 7.11171875 0.42648438 7.9109375 0.32421875 8.734375 C-0.02565557 11.17927987 -0.45594697 13.59062232 -1 16 C0.32 16.33 1.64 16.66 3 17 C3 17.99 3 18.98 3 20 C-3.14219114 22.16783217 -3.14219114 22.16783217 -6.875 21.4375 C-9 20 -9 20 -9.9375 17.8125 C-10.01665465 14.25054069 -9.04804486 11.39073337 -8 8 C-8 6.68 -8 5.36 -8 4 C-9.32 4 -10.64 4 -12 4 C-11.1875 2.0625 -11.1875 2.0625 -10 0 C-6.26840331 -1.24386556 -3.81984796 -0.77811718 0 0 Z " fill="#000000" transform="translate(36,27)"/>
<path d="M0 0 C3.0625 0.1875 3.0625 0.1875 5.0625 2.1875 C4.6875 4.8125 4.6875 4.8125 4.0625 7.1875 C-1.6875 8.3125 -1.6875 8.3125 -3.9375 7.1875 C-3.98004356 5.18795254 -3.97830783 3.18708364 -3.9375 1.1875 C-2.9375 0.1875 -2.9375 0.1875 0 0 Z " fill="#000000" transform="translate(34.9375,15.8125)"/>
</svg>
